<svg width="24" height="24" viewBox="0 0 24 24" fill="none" xmlns="http://www.w3.org/2000/svg">
<path d="M13.95 21.9C13.7 22.0333 13.4458 22.0542 13.1875 21.9625C12.9292 21.8708 12.7333 21.7 12.6 21.45L11.9459 20.55C11.8126 20.3 11.7918 20.0458 11.8834 19.7875C11.9751 19.5292 12.1459 19.3333 12.3959 19.2C12.6459 19.0667 12.9001 19.0458 13.1584 19.1375C13.4168 19.2292 13.6126 19.4 13.7459 19.65L14.4 20.55C14.5333 20.8 14.5542 21.0542 14.4625 21.3125C14.3708 21.5708 14.2 21.7667 13.95 21.9ZM19.95 21.9C19.7 22.0333 19.4458 22.0542 19.1875 21.9625C18.9292 21.8708 18.7333 21.7 18.6 21.45L17.9459 20.55C17.8126 20.3 17.7918 20.0458 17.8834 19.7875C17.9751 19.5292 18.1459 19.3333 18.3959 19.2C18.6459 19.0667 18.9001 19.0458 19.1584 19.1375C19.4168 19.2292 19.6126 19.4 19.7459 19.65L20.4 20.55C20.5333 20.8 20.5542 21.0542 20.4625 21.3125C20.3708 21.5708 20.2 21.7667 19.95 21.9ZM7.95 21.9C7.7 22.0333 7.44583 22.0542 7.1875 21.9625C6.92917 21.8708 6.73333 21.7 6.6 21.45L5.94592 20.55C5.81259 20.3 5.79176 20.0458 5.88342 19.7875C5.97509 19.5292 6.14592 19.3333 6.39592 19.2C6.64592 19.0667 6.90009 19.0458 7.15842 19.1375C7.41676 19.2292 7.61259 19.4 7.74592 19.65L8.4 20.55C8.53333 20.8 8.55417 21.0542 8.4625 21.3125C8.37083 21.5708 8.2 21.7667 7.95 21.9ZM7.5 16C5.98333 16 4.6875 15.4625 3.6125 14.3875C2.5375 13.3125 2 12.0167 2 10.5C2 9.11667 2.45833 7.90833 3.375 6.875C4.29167 5.84167 5.425 5.23333 6.775 5.05C7.30833 4.1 8.0375 3.35417 8.9625 2.8125C9.8875 2.27083 10.9 2 12 2C13.5 2 14.8042 2.47917 15.9125 3.4375C17.0208 4.39583 17.6917 5.59167 17.925 7.025C19.075 7.125 20.0417 7.6 20.825 8.45C21.6083 9.3 22 10.3167 22 11.5C22 12.75 21.5625 13.8125 20.6875 14.6875C19.8125 15.5625 18.75 16 17.5 16H7.5ZM7.5 14H17.5C18.2 14 18.7917 13.7583 19.275 13.275C19.7583 12.7917 20 12.2 20 11.5C20 10.8 19.7583 10.2083 19.275 9.725C18.7917 9.24167 18.2 9 17.5 9H16V8C16 6.9 15.6083 5.95833 14.825 5.175C14.0417 4.39167 13.1 4 12 4C11.2 4 10.4708 4.21667 9.8125 4.65C9.15417 5.08333 8.65833 5.66667 8.325 6.4L8.075 7H7.45C6.5 7.03333 5.6875 7.3875 5.0125 8.0625C4.3375 8.7375 4 9.55 4 10.5C4 11.4667 4.34167 12.2917 5.025 12.975C5.70833 13.6583 6.53333 14 7.5 14Z" fill="#1F1F1F"/>
</svg>
